<svg width="1820" height="316" viewBox="0 0 1820 316" fill="none" xmlns="http://www.w3.org/2000/svg">
<path d="M1634.65 296.973C1624.81 296.973 1615.23 295.937 1605.91 293.865C1596.84 292.053 1588.3 289.464 1580.27 286.097C1572.5 282.472 1565.77 278.2 1560.08 273.28L1570.17 251.141C1576.39 256.061 1583.12 260.204 1590.37 263.57C1597.62 266.677 1605 269.008 1612.51 270.561C1620.02 272.115 1627.66 272.892 1635.43 272.892C1650.19 272.892 1661.32 270.173 1668.83 264.735C1676.34 259.297 1680.09 251.918 1680.09 242.596C1680.09 235.346 1677.63 229.649 1672.71 225.506C1667.79 221.104 1660.02 217.738 1649.41 215.408L1614.06 207.639C1597.75 204.273 1585.58 198.447 1577.55 190.161C1569.79 181.875 1565.9 171.129 1565.9 157.924C1565.9 146.271 1568.88 136.302 1574.83 128.016C1581.05 119.471 1589.72 112.868 1600.86 108.208C1611.99 103.547 1624.94 101.216 1639.7 101.216C1648.5 101.216 1656.92 102.123 1664.94 103.935C1672.97 105.748 1680.48 108.467 1687.47 112.092C1694.72 115.458 1700.94 119.73 1706.12 124.909L1695.63 147.048C1690.71 142.387 1685.14 138.503 1678.93 135.396C1672.71 132.03 1666.24 129.57 1659.51 128.016C1653.03 126.204 1646.43 125.297 1639.7 125.297C1625.2 125.297 1614.19 128.146 1606.68 133.842C1599.17 139.539 1595.42 147.048 1595.42 156.37C1595.42 163.62 1597.75 169.576 1602.41 174.237C1607.07 178.897 1614.32 182.264 1624.16 184.335L1659.51 191.715C1676.34 195.34 1688.9 201.166 1697.18 209.193C1705.73 216.961 1710 227.578 1710 241.042C1710 252.436 1706.89 262.405 1700.68 270.95C1694.46 279.236 1685.66 285.709 1674.27 290.37C1663.13 294.772 1649.93 296.973 1634.65 296.973Z" fill="#F9F9F9"/>
<path d="M1441.41 293.477V104.712H1472.1V149.379H1468.21C1472.61 134.102 1480.25 122.579 1491.13 114.811C1502 106.784 1516.37 102.123 1534.24 100.828L1545.5 99.6631L1547.84 126.851L1528.03 129.182C1510.42 130.736 1496.82 136.432 1487.24 146.272C1477.92 155.852 1473.26 169.058 1473.26 185.889V293.477H1441.41Z" fill="#F9F9F9"/>
<path d="M1311.82 296.973C1293.43 296.973 1277.51 292.959 1264.04 284.932C1250.58 276.905 1240.09 265.641 1232.58 251.141C1225.33 236.381 1221.71 219.033 1221.71 199.095C1221.71 179.156 1225.33 161.937 1232.58 147.437C1240.09 132.677 1250.58 121.284 1264.04 113.257C1277.51 105.23 1293.43 101.216 1311.82 101.216C1330.2 101.216 1346.12 105.23 1359.59 113.257C1373.05 121.284 1383.41 132.677 1390.66 147.437C1398.17 161.937 1401.93 179.156 1401.93 199.095C1401.93 219.033 1398.17 236.381 1390.66 251.141C1383.41 265.641 1373.05 276.905 1359.59 284.932C1346.12 292.959 1330.2 296.973 1311.82 296.973ZM1311.82 271.726C1329.68 271.726 1343.79 265.512 1354.15 253.083C1364.77 240.395 1370.08 222.269 1370.08 198.706C1370.08 175.402 1364.77 157.535 1354.15 145.106C1343.79 132.677 1329.68 126.463 1311.82 126.463C1294.21 126.463 1280.1 132.677 1269.48 145.106C1258.86 157.535 1253.55 175.402 1253.55 198.706C1253.55 222.269 1258.86 240.395 1269.48 253.083C1280.1 265.512 1294.21 271.726 1311.82 271.726Z" fill="#F9F9F9"/>
<path d="M1103.76 296.973C1085.38 296.973 1069.45 292.959 1055.99 284.932C1042.52 276.905 1032.03 265.641 1024.53 251.141C1017.28 236.381 1013.65 219.033 1013.65 199.095C1013.65 179.156 1017.28 161.937 1024.53 147.437C1032.03 132.677 1042.52 121.284 1055.99 113.257C1069.45 105.23 1085.38 101.216 1103.76 101.216C1122.14 101.216 1138.07 105.23 1151.53 113.257C1165 121.284 1175.36 132.677 1182.61 147.437C1190.12 161.937 1193.87 179.156 1193.87 199.095C1193.87 219.033 1190.12 236.381 1182.61 251.141C1175.36 265.641 1165 276.905 1151.53 284.932C1138.07 292.959 1122.14 296.973 1103.76 296.973ZM1103.76 271.726C1121.63 271.726 1135.74 265.512 1146.1 253.083C1156.71 240.395 1162.02 222.269 1162.02 198.706C1162.02 175.402 1156.71 157.535 1146.1 145.106C1135.74 132.677 1121.63 126.463 1103.76 126.463C1086.15 126.463 1072.04 132.677 1061.42 145.106C1050.81 157.535 1045.5 175.402 1045.5 198.706C1045.5 222.269 1050.81 240.395 1061.42 253.083C1072.04 265.512 1086.15 271.726 1103.76 271.726Z" fill="#F9F9F9"/>
<path d="M878.482 296.973C861.651 296.973 846.891 292.959 834.204 284.932C821.775 276.905 812.064 265.642 805.073 251.141C798.341 236.382 794.975 219.033 794.975 199.095C794.975 178.898 798.341 161.549 805.073 147.048C812.064 132.289 821.775 121.025 834.204 113.257C846.891 105.23 861.651 101.217 878.482 101.217C895.572 101.217 910.202 105.489 922.372 114.034C934.542 122.579 942.698 134.102 946.841 148.602H942.569V19.6514H974.03V293.477H943.345V248.422H947.23C943.087 263.182 934.801 274.963 922.372 283.767C910.202 292.571 895.572 296.973 878.482 296.973ZM885.085 271.727C902.951 271.727 917.063 265.512 927.421 253.083C938.037 240.395 943.345 222.399 943.345 199.095C943.345 175.531 938.037 157.535 927.421 145.106C917.063 132.677 902.951 126.463 885.085 126.463C867.477 126.463 853.365 132.677 842.749 145.106C832.132 157.535 826.824 175.531 826.824 199.095C826.824 222.399 832.132 240.395 842.749 253.083C853.365 265.512 867.477 271.727 885.085 271.727Z" fill="#F9F9F9"/>
<path d="M534.46 293.477V272.503L648.263 121.025V129.181H534.46V104.712H677.393V125.686L562.425 277.941V269.007H681.666V293.477H534.46Z" fill="#F9F9F9"/>
<path d="M456.227 57.7155V22.3706H495.067V57.7155H456.227ZM460.111 293.478V104.713H491.571V293.478H460.111Z" fill="#F9F9F9"/>
<path d="M328.676 293.477V104.712H359.36V149.379H355.476C359.878 134.102 367.516 122.579 378.392 114.811C389.267 106.784 403.638 102.123 421.505 100.828L432.768 99.6631L435.099 126.851L415.29 129.182C397.682 130.736 384.088 136.432 374.508 146.272C365.186 155.852 360.525 169.058 360.525 185.889V293.477H328.676Z" fill="#F9F9F9"/>
<path d="M205.548 296.973C188.458 296.973 173.699 292.571 161.27 283.767C149.099 274.963 140.943 263.182 136.8 248.422H140.684V293.477H110V19.6514H141.461V148.602H136.8C141.202 134.102 149.488 122.579 161.658 114.034C173.828 105.489 188.458 101.217 205.548 101.217C222.638 101.217 237.397 105.23 249.826 113.257C262.255 121.025 271.836 132.289 278.568 147.048C285.559 161.549 289.055 178.898 289.055 199.095C289.055 219.033 285.559 236.382 278.568 251.141C271.836 265.642 262.126 276.905 249.438 284.932C237.009 292.959 222.379 296.973 205.548 296.973ZM198.945 271.727C216.812 271.727 230.924 265.512 241.281 253.083C251.897 240.395 257.206 222.399 257.206 199.095C257.206 175.531 251.897 157.535 241.281 145.106C230.924 132.677 216.812 126.463 198.945 126.463C181.337 126.463 167.225 132.677 156.609 145.106C145.992 157.535 140.684 175.531 140.684 199.095C140.684 222.399 145.992 240.395 156.609 253.083C167.225 265.512 181.337 271.727 198.945 271.727Z" fill="#F9F9F9"/>
</svg>
