<svg width="2744" height="588" viewBox="0 0 2744 588" fill="none" xmlns="http://www.w3.org/2000/svg">
<path d="M2642.9 469.489C2629.76 469.489 2616.95 468.105 2604.5 465.337C2592.39 462.915 2580.97 459.455 2570.24 454.957C2559.86 450.113 2550.87 444.404 2543.26 437.83L2556.75 408.247C2565.05 414.821 2574.05 420.357 2583.74 424.855C2593.43 429.007 2603.29 432.121 2613.32 434.197C2623.36 436.273 2633.56 437.311 2643.94 437.311C2663.66 437.311 2678.54 433.678 2688.58 426.412C2698.61 419.146 2703.63 409.285 2703.63 396.829C2703.63 387.141 2700.34 379.529 2693.77 373.993C2687.19 368.111 2676.81 363.613 2662.63 360.499L2615.4 350.119C2593.6 345.621 2577.34 337.836 2566.61 326.764C2556.23 315.692 2551.04 301.333 2551.04 283.687C2551.04 268.117 2555.02 254.796 2562.98 243.724C2571.28 232.306 2582.87 223.483 2597.75 217.255C2612.63 211.027 2629.93 207.913 2649.65 207.913C2661.42 207.913 2672.66 209.124 2683.39 211.546C2694.11 213.968 2704.15 217.601 2713.49 222.445C2723.18 226.943 2731.48 232.652 2738.4 239.572L2724.39 269.155C2717.81 262.927 2710.37 257.737 2702.07 253.585C2693.77 249.087 2685.12 245.8 2676.12 243.724C2667.47 241.302 2658.65 240.091 2649.65 240.091C2630.28 240.091 2615.57 243.897 2605.54 251.509C2595.5 259.121 2590.49 269.155 2590.49 281.611C2590.49 291.299 2593.6 299.257 2599.83 305.485C2606.06 311.713 2615.74 316.211 2628.89 318.979L2676.12 328.84C2698.61 333.684 2715.39 341.469 2726.46 352.195C2737.88 362.575 2743.59 376.761 2743.59 394.753C2743.59 409.977 2739.44 423.298 2731.13 434.716C2722.83 445.788 2711.07 454.438 2695.84 460.666C2680.96 466.548 2663.32 469.489 2642.9 469.489Z" fill="#F9F9F9"/>
<path d="M2384.69 464.818V212.584H2425.7V272.269H2420.51C2426.39 251.855 2436.59 236.458 2451.13 226.078C2465.66 215.352 2484.86 209.124 2508.74 207.394L2523.79 205.837L2526.9 242.167L2500.43 245.281C2476.9 247.357 2458.74 254.969 2445.94 268.117C2433.48 280.919 2427.25 298.565 2427.25 321.055V464.818H2384.69Z" fill="#F9F9F9"/>
<path d="M2211.52 469.489C2186.96 469.489 2165.68 464.126 2147.69 453.4C2129.69 442.674 2115.68 427.623 2105.65 408.247C2095.96 388.525 2091.12 365.343 2091.12 338.701C2091.12 312.059 2095.96 289.05 2105.65 269.674C2115.68 249.952 2129.69 234.728 2147.69 224.002C2165.68 213.276 2186.96 207.913 2211.52 207.913C2236.09 207.913 2257.37 213.276 2275.36 224.002C2293.35 234.728 2307.19 249.952 2316.88 269.674C2326.91 289.05 2331.93 312.059 2331.93 338.701C2331.93 365.343 2326.91 388.525 2316.88 408.247C2307.19 427.623 2293.35 442.674 2275.36 453.4C2257.37 464.126 2236.09 469.489 2211.52 469.489ZM2211.52 435.754C2235.4 435.754 2254.25 427.45 2268.09 410.842C2282.28 393.888 2289.37 369.668 2289.37 338.182C2289.37 307.042 2282.28 283.168 2268.09 266.56C2254.25 249.952 2235.4 241.648 2211.52 241.648C2188 241.648 2169.14 249.952 2154.95 266.56C2140.77 283.168 2133.67 307.042 2133.67 338.182C2133.67 369.668 2140.77 393.888 2154.95 410.842C2169.14 427.45 2188 435.754 2211.52 435.754Z" fill="#F9F9F9"/>
<path d="M1933.51 469.489C1908.95 469.489 1887.67 464.126 1869.68 453.4C1851.68 442.674 1837.67 427.623 1827.64 408.247C1817.95 388.525 1813.11 365.343 1813.11 338.701C1813.11 312.059 1817.95 289.05 1827.64 269.674C1837.67 249.952 1851.68 234.728 1869.68 224.002C1887.67 213.276 1908.95 207.913 1933.51 207.913C1958.08 207.913 1979.36 213.276 1997.35 224.002C2015.34 234.728 2029.18 249.952 2038.87 269.674C2048.9 289.05 2053.92 312.059 2053.92 338.701C2053.92 365.343 2048.9 388.525 2038.87 408.247C2029.18 427.623 2015.34 442.674 1997.35 453.4C1979.36 464.126 1958.08 469.489 1933.51 469.489ZM1933.51 435.754C1957.39 435.754 1976.24 427.45 1990.08 410.842C2004.27 393.888 2011.36 369.668 2011.36 338.182C2011.36 307.042 2004.27 283.168 1990.08 266.56C1976.24 249.952 1957.39 241.648 1933.51 241.648C1909.99 241.648 1891.13 249.952 1876.94 266.56C1862.76 283.168 1855.66 307.042 1855.66 338.182C1855.66 369.668 1862.76 393.888 1876.94 410.842C1891.13 427.45 1909.99 435.754 1933.51 435.754Z" fill="#F9F9F9"/>
<path d="M1632.49 469.489C1610 469.489 1590.28 464.126 1573.32 453.4C1556.72 442.674 1543.74 427.623 1534.4 408.247C1525.4 388.525 1520.9 365.343 1520.9 338.701C1520.9 311.713 1525.4 288.531 1534.4 269.155C1543.74 249.433 1556.72 234.382 1573.32 224.002C1590.28 213.276 1610 207.913 1632.49 207.913C1655.33 207.913 1674.87 213.622 1691.14 225.04C1707.4 236.458 1718.3 251.855 1723.83 271.231H1718.12V98.9229H1760.16V464.818H1719.16V404.614H1724.35C1718.82 424.336 1707.74 440.079 1691.14 451.843C1674.87 463.607 1655.33 469.489 1632.49 469.489ZM1641.31 435.754C1665.19 435.754 1684.04 427.45 1697.88 410.842C1712.07 393.888 1719.16 369.841 1719.16 338.701C1719.16 307.215 1712.07 283.168 1697.88 266.56C1684.04 249.952 1665.19 241.648 1641.31 241.648C1617.78 241.648 1598.93 249.952 1584.74 266.56C1570.56 283.168 1563.46 307.215 1563.46 338.701C1563.46 369.841 1570.56 393.888 1584.74 410.842C1598.93 427.45 1617.78 435.754 1641.31 435.754Z" fill="#F9F9F9"/>
<path d="M1172.8 464.818V436.792L1324.86 234.381V245.281H1172.8V212.583H1363.79V240.609L1210.16 444.057V432.121H1369.5V464.818H1172.8Z" fill="#F9F9F9"/>
<path d="M1068.26 149.785V102.556H1120.16V149.785H1068.26ZM1073.45 464.818V212.584H1115.49V464.818H1073.45Z" fill="#F9F9F9"/>
<path d="M897.82 464.818V212.584H938.821V272.269H933.631C939.513 251.855 949.72 236.458 964.252 226.078C978.784 215.352 997.987 209.124 1021.86 207.394L1036.91 205.837L1040.03 242.167L1013.56 245.281C990.029 247.357 971.864 254.969 959.062 268.117C946.606 280.919 940.378 298.565 940.378 321.055V464.818H897.82Z" fill="#F9F9F9"/>
<path d="M733.293 469.489C710.457 469.489 690.735 463.607 674.127 451.843C657.865 440.079 646.966 424.336 641.43 404.614H646.62V464.818H605.619V98.9229H647.658V271.231H641.43C647.312 251.855 658.384 236.458 674.646 225.04C690.908 213.622 710.457 207.913 733.293 207.913C756.129 207.913 775.851 213.276 792.459 224.002C809.067 234.382 821.869 249.433 830.865 269.155C840.207 288.531 844.878 311.713 844.878 338.701C844.878 365.343 840.207 388.525 830.865 408.247C821.869 427.623 808.894 442.674 791.94 453.4C775.332 464.126 755.783 469.489 733.293 469.489ZM724.47 435.754C748.344 435.754 767.201 427.45 781.041 410.842C795.227 393.888 802.32 369.841 802.32 338.701C802.32 307.215 795.227 283.168 781.041 266.56C767.201 249.952 748.344 241.648 724.47 241.648C700.942 241.648 682.085 249.952 667.899 266.56C653.713 283.168 646.62 307.215 646.62 338.701C646.62 369.841 653.713 393.888 667.899 410.842C682.085 427.45 700.942 435.754 724.47 435.754Z" fill="#F9F9F9"/>
<path d="M207.367 2.01089C250.584 -7.17523 285.619 21.1953 285.619 65.3781V461.378C285.619 505.561 250.584 548.825 207.367 558.011L78.252 585.455C35.0347 594.641 5.19401e-05 566.271 0 522.088V126.088C0 81.9053 35.0347 38.6413 78.252 29.4552L207.367 2.01089ZM223.018 110.165C223.018 83.6555 201.997 66.633 176.066 72.1447L109.553 86.2833C83.6224 91.795 62.6016 117.753 62.6016 144.263V476.263C62.6016 502.772 83.6224 519.795 109.553 514.283L176.066 500.145C201.997 494.633 223.018 468.675 223.018 442.165V110.165Z" fill="#F9F9F9"/>
</svg>
