<svg width="2167" height="4141" viewBox="0 0 2167 4141" fill="none" xmlns="http://www.w3.org/2000/svg">
<path d="M1523.31 81.8869C1817.85 19.2791 2056.63 212.638 2056.63 513.765V3212.7C2056.63 3513.82 1817.85 3808.69 1523.31 3871.3L643.325 4058.34C348.779 4120.95 110 3927.59 110 3626.47V927.533C110 626.406 348.778 331.541 643.325 268.933L1523.31 81.8869ZM1629.97 819.011C1629.97 638.335 1486.71 522.318 1309.98 559.883L856.655 656.245C679.927 693.809 536.66 870.727 536.66 1051.4V3314.14C536.66 3494.82 679.927 3610.84 856.655 3573.27L1309.98 3476.91C1486.71 3439.35 1629.97 3262.43 1629.97 3081.75V819.011Z" fill="#F9F9F9"/>
</svg>
