<svg width="1820" height="483" viewBox="0 0 1820 483" fill="none" xmlns="http://www.w3.org/2000/svg">
<path d="M1651.28 343.913C1643.61 343.913 1636.15 343.106 1628.88 341.492C1621.82 340.079 1615.16 338.061 1608.91 335.438C1602.86 332.613 1597.61 329.284 1593.17 325.45L1601.04 308.198C1605.88 312.032 1611.13 315.26 1616.78 317.883C1622.43 320.305 1628.18 322.121 1634.03 323.331C1639.88 324.542 1645.83 325.147 1651.89 325.147C1663.39 325.147 1672.07 323.029 1677.92 318.791C1683.77 314.554 1686.69 308.803 1686.69 301.539C1686.69 295.889 1684.78 291.45 1680.94 288.222C1677.11 284.792 1671.06 282.168 1662.78 280.352L1635.24 274.299C1622.53 271.676 1613.05 267.136 1606.79 260.679C1600.74 254.222 1597.71 245.848 1597.71 235.557C1597.71 226.477 1600.03 218.709 1604.67 212.252C1609.51 205.593 1616.27 200.448 1624.95 196.816C1633.63 193.184 1643.72 191.368 1655.22 191.368C1662.08 191.368 1668.64 192.074 1674.89 193.486C1681.15 194.899 1687 197.017 1692.45 199.842C1698.1 202.466 1702.94 205.795 1706.97 209.83L1698.8 227.083C1694.97 223.451 1690.63 220.424 1685.79 218.003C1680.94 215.379 1675.9 213.463 1670.65 212.252C1665.61 210.839 1660.46 210.133 1655.22 210.133C1643.92 210.133 1635.34 212.353 1629.49 216.792C1623.64 221.231 1620.71 227.083 1620.71 234.347C1620.71 239.997 1622.53 244.637 1626.16 248.269C1629.79 251.901 1635.44 254.525 1643.11 256.139L1670.65 261.89C1683.77 264.714 1693.56 269.255 1700.01 275.51C1706.67 281.563 1710 289.836 1710 300.329C1710 309.207 1707.58 316.975 1702.74 323.634C1697.89 330.091 1691.03 335.135 1682.15 338.768C1673.48 342.198 1663.19 343.913 1651.28 343.913Z" fill="#F9F9F9"/>
<path d="M1500.7 341.189V194.092H1524.61V228.899H1521.58C1525.01 216.994 1530.97 208.015 1539.44 201.961C1547.92 195.706 1559.11 192.074 1573.04 191.065L1581.81 190.157L1583.63 211.344L1568.19 213.16C1554.47 214.371 1543.88 218.81 1536.41 226.478C1529.15 233.943 1525.52 244.234 1525.52 257.35V341.189H1500.7Z" fill="#F9F9F9"/>
<path d="M1399.71 343.913C1385.38 343.913 1372.97 340.785 1362.48 334.53C1351.99 328.275 1343.82 319.498 1337.97 308.198C1332.32 296.697 1329.49 283.177 1329.49 267.64C1329.49 252.103 1332.32 238.685 1337.97 227.385C1343.82 215.884 1351.99 207.006 1362.48 200.75C1372.97 194.495 1385.38 191.368 1399.71 191.368C1414.04 191.368 1426.45 194.495 1436.94 200.75C1447.43 207.006 1455.5 215.884 1461.15 227.385C1467 238.685 1469.93 252.103 1469.93 267.64C1469.93 283.177 1467 296.697 1461.15 308.198C1455.5 319.498 1447.43 328.275 1436.94 334.53C1426.45 340.785 1414.04 343.913 1399.71 343.913ZM1399.71 324.239C1413.63 324.239 1424.63 319.397 1432.7 309.711C1440.97 299.824 1445.11 285.7 1445.11 267.338C1445.11 249.177 1440.97 235.255 1432.7 225.569C1424.63 215.884 1413.63 211.041 1399.71 211.041C1385.99 211.041 1374.99 215.884 1366.72 225.569C1358.45 235.255 1354.31 249.177 1354.31 267.338C1354.31 285.7 1358.45 299.824 1366.72 309.711C1374.99 319.397 1385.99 324.239 1399.71 324.239Z" fill="#F9F9F9"/>
<path d="M1237.58 343.913C1223.26 343.913 1210.85 340.785 1200.35 334.53C1189.86 328.275 1181.69 319.498 1175.84 308.198C1170.19 296.697 1167.36 283.177 1167.36 267.64C1167.36 252.103 1170.19 238.685 1175.84 227.385C1181.69 215.884 1189.86 207.006 1200.35 200.75C1210.85 194.495 1223.26 191.368 1237.58 191.368C1251.91 191.368 1264.32 194.495 1274.81 200.75C1285.3 207.006 1293.37 215.884 1299.02 227.385C1304.87 238.685 1307.8 252.103 1307.8 267.64C1307.8 283.177 1304.87 296.697 1299.02 308.198C1293.37 319.498 1285.3 328.275 1274.81 334.53C1264.32 340.785 1251.91 343.913 1237.58 343.913ZM1237.58 324.239C1251.5 324.239 1262.5 319.397 1270.57 309.711C1278.85 299.824 1282.98 285.7 1282.98 267.338C1282.98 249.177 1278.85 235.255 1270.57 225.569C1262.5 215.884 1251.5 211.041 1237.58 211.041C1223.86 211.041 1212.86 215.884 1204.59 225.569C1196.32 235.255 1192.18 249.177 1192.18 267.338C1192.18 285.7 1196.32 299.824 1204.59 309.711C1212.86 319.397 1223.86 324.239 1237.58 324.239Z" fill="#F9F9F9"/>
<path d="M1062.03 343.913C1048.92 343.913 1037.41 340.785 1027.53 334.53C1017.84 328.275 1010.27 319.498 1004.83 308.198C999.58 296.696 996.957 283.177 996.957 267.64C996.957 251.901 999.58 238.382 1004.83 227.083C1010.27 215.581 1017.84 206.804 1027.53 200.75C1037.41 194.495 1048.92 191.368 1062.03 191.368C1075.35 191.368 1086.75 194.697 1096.23 201.356C1105.72 208.014 1112.07 216.994 1115.3 228.293H1111.97V127.807H1136.49V341.189H1112.58V306.079H1115.6C1112.37 317.581 1105.92 326.762 1096.23 333.622C1086.75 340.483 1075.35 343.913 1062.03 343.913ZM1067.18 324.239C1081.1 324.239 1092.1 319.397 1100.17 309.711C1108.44 299.824 1112.58 285.8 1112.58 267.64C1112.58 249.278 1108.44 235.255 1100.17 225.569C1092.1 215.884 1081.1 211.041 1067.18 211.041C1053.46 211.041 1042.46 215.884 1034.19 225.569C1025.91 235.255 1021.78 249.278 1021.78 267.64C1021.78 285.8 1025.91 299.824 1034.19 309.711C1042.46 319.397 1053.46 324.239 1067.18 324.239Z" fill="#F9F9F9"/>
<path d="M793.948 341.189V324.845L882.63 206.804V213.16H793.948V194.092H905.33V210.436L815.74 329.082V322.121H908.66V341.189H793.948Z" fill="#F9F9F9"/>
<path d="M732.984 157.469V129.926H763.251V157.469H732.984ZM736.011 341.189V194.092H760.527V341.189H736.011Z" fill="#F9F9F9"/>
<path d="M633.589 341.189V194.092H657.5V228.899H654.473C657.903 216.994 663.856 208.015 672.331 201.961C680.805 195.706 692.004 192.074 705.927 191.065L714.704 190.157L716.52 211.344L701.084 213.16C687.363 214.371 676.77 218.81 669.304 226.478C662.04 233.943 658.408 244.234 658.408 257.35V341.189H633.589Z" fill="#F9F9F9"/>
<path d="M537.64 343.913C524.323 343.913 512.821 340.483 503.136 333.622C493.652 326.762 487.296 317.581 484.068 306.079H487.094V341.189H463.184V127.807H487.7V228.293H484.068C487.498 216.994 493.955 208.014 503.439 201.356C512.922 194.697 524.323 191.368 537.64 191.368C550.958 191.368 562.459 194.495 572.144 200.75C581.83 206.804 589.296 215.581 594.542 227.083C599.99 238.382 602.714 251.901 602.714 267.64C602.714 283.177 599.99 296.696 594.542 308.198C589.296 319.498 581.729 328.275 571.842 334.53C562.156 340.785 550.756 343.913 537.64 343.913ZM532.495 324.239C546.418 324.239 557.415 319.397 565.486 309.711C573.759 299.824 577.895 285.8 577.895 267.64C577.895 249.278 573.759 235.255 565.486 225.569C557.415 215.884 546.418 211.041 532.495 211.041C518.774 211.041 507.777 215.884 499.504 225.569C491.231 235.255 487.094 249.278 487.094 267.64C487.094 285.8 491.231 299.824 499.504 309.711C507.777 319.397 518.774 324.239 532.495 324.239Z" fill="#F9F9F9"/>
<path d="M230.932 71.2905C256.135 65.9333 276.567 82.4784 276.567 108.245V339.183C276.566 364.949 256.135 390.18 230.932 395.537L155.635 411.542C130.431 416.899 110 400.354 110 374.588V143.649C110 117.883 130.431 92.6525 155.635 87.2954L230.932 71.2905ZM240.059 134.364C240.059 118.904 227.8 108.977 212.678 112.191L173.889 120.436C158.767 123.651 146.508 138.789 146.508 154.249V347.863C146.508 363.323 158.767 373.25 173.889 370.036L212.678 361.791C227.8 358.577 240.059 343.438 240.059 327.978V134.364Z" fill="#F9F9F9"/>
</svg>
