<svg width="345" height="397" viewBox="0 0 345 397" fill="none" xmlns="http://www.w3.org/2000/svg">
<path d="M200.452 70.8686C219.303 66.8617 234.585 79.2367 234.585 98.5088V271.24C234.584 290.513 219.303 309.384 200.452 313.391L144.133 325.362C125.282 329.369 110 316.994 110 297.722V124.99C110 105.718 125.282 86.8465 144.133 82.8396L200.452 70.8686ZM207.278 118.045C207.278 106.481 198.109 99.0562 186.799 101.46L157.786 107.628C146.475 110.032 137.306 121.354 137.306 132.918V277.733C137.306 289.296 146.475 296.721 157.786 294.317L186.799 288.15C198.109 285.746 207.278 274.423 207.278 262.86V118.045Z" fill="#F9F9F9"/>
</svg>
