<svg width="1820" height="316" viewBox="0 0 1820 316" fill="none" xmlns="http://www.w3.org/2000/svg">
<path d="M1634.65 296.887C1624.81 296.887 1615.23 295.852 1605.91 293.78C1596.84 291.967 1588.3 289.378 1580.27 286.012C1572.5 282.387 1565.77 278.114 1560.08 273.195L1570.17 251.055C1576.39 255.975 1583.12 260.118 1590.37 263.484C1597.62 266.592 1605 268.922 1612.51 270.476C1620.02 272.029 1627.66 272.806 1635.43 272.806C1650.19 272.806 1661.32 270.087 1668.83 264.65C1676.34 259.212 1680.09 251.832 1680.09 242.51C1680.09 235.26 1677.63 229.564 1672.71 225.421C1667.79 221.019 1660.02 217.653 1649.41 215.322L1614.06 207.554C1597.75 204.188 1585.58 198.362 1577.55 190.076C1569.79 181.79 1565.9 171.044 1565.9 157.838C1565.9 146.186 1568.88 136.217 1574.83 127.931C1581.05 119.386 1589.72 112.783 1600.86 108.122C1611.99 103.461 1624.94 101.131 1639.7 101.131C1648.5 101.131 1656.92 102.037 1664.94 103.85C1672.97 105.662 1680.48 108.381 1687.47 112.006C1694.72 115.372 1700.94 119.645 1706.12 124.824L1695.63 146.963C1690.71 142.302 1685.14 138.418 1678.93 135.311C1672.71 131.944 1666.24 129.484 1659.51 127.931C1653.03 126.118 1646.43 125.212 1639.7 125.212C1625.2 125.212 1614.19 128.06 1606.68 133.757C1599.17 139.454 1595.42 146.963 1595.42 156.284C1595.42 163.535 1597.75 169.49 1602.41 174.151C1607.07 178.812 1614.32 182.178 1624.16 184.25L1659.51 191.629C1676.34 195.254 1688.9 201.081 1697.18 209.108C1705.73 216.876 1710 227.492 1710 240.957C1710 252.35 1706.89 262.319 1700.68 270.864C1694.46 279.15 1685.66 285.623 1674.27 290.284C1663.13 294.686 1649.93 296.887 1634.65 296.887Z" fill="#1D1D1F"/>
<path d="M1441.41 293.392V104.627H1472.1V149.294H1468.21C1472.61 134.016 1480.25 122.494 1491.13 114.725C1502 106.698 1516.37 102.038 1534.24 100.743L1545.5 99.5776L1547.84 126.766L1528.03 129.096C1510.42 130.65 1496.82 136.347 1487.24 146.186C1477.92 155.767 1473.26 168.973 1473.26 185.804V293.392H1441.41Z" fill="#1D1D1F"/>
<path d="M1311.82 296.887C1293.43 296.887 1277.51 292.874 1264.04 284.847C1250.58 276.82 1240.09 265.556 1232.58 251.055C1225.33 236.296 1221.71 218.947 1221.71 199.009C1221.71 179.071 1225.33 161.852 1232.58 147.351C1240.09 132.592 1250.58 121.198 1264.04 113.171C1277.51 105.144 1293.43 101.131 1311.82 101.131C1330.2 101.131 1346.12 105.144 1359.59 113.171C1373.05 121.198 1383.41 132.592 1390.66 147.351C1398.17 161.852 1401.93 179.071 1401.93 199.009C1401.93 218.947 1398.17 236.296 1390.66 251.055C1383.41 265.556 1373.05 276.82 1359.59 284.847C1346.12 292.874 1330.2 296.887 1311.82 296.887ZM1311.82 271.641C1329.68 271.641 1343.79 265.426 1354.15 252.997C1364.77 240.31 1370.08 222.184 1370.08 198.621C1370.08 175.316 1364.77 157.45 1354.15 145.021C1343.79 132.592 1329.68 126.377 1311.82 126.377C1294.21 126.377 1280.1 132.592 1269.48 145.021C1258.86 157.45 1253.55 175.316 1253.55 198.621C1253.55 222.184 1258.86 240.31 1269.48 252.997C1280.1 265.426 1294.21 271.641 1311.82 271.641Z" fill="#1D1D1F"/>
<path d="M1103.76 296.887C1085.38 296.887 1069.45 292.874 1055.99 284.847C1042.52 276.82 1032.03 265.556 1024.53 251.055C1017.28 236.296 1013.65 218.947 1013.65 199.009C1013.65 179.071 1017.28 161.852 1024.53 147.351C1032.03 132.592 1042.52 121.198 1055.99 113.171C1069.45 105.144 1085.38 101.131 1103.76 101.131C1122.14 101.131 1138.07 105.144 1151.53 113.171C1165 121.198 1175.36 132.592 1182.61 147.351C1190.12 161.852 1193.87 179.071 1193.87 199.009C1193.87 218.947 1190.12 236.296 1182.61 251.055C1175.36 265.556 1165 276.82 1151.53 284.847C1138.07 292.874 1122.14 296.887 1103.76 296.887ZM1103.76 271.641C1121.63 271.641 1135.74 265.426 1146.1 252.997C1156.71 240.31 1162.02 222.184 1162.02 198.621C1162.02 175.316 1156.71 157.45 1146.1 145.021C1135.74 132.592 1121.63 126.377 1103.76 126.377C1086.15 126.377 1072.04 132.592 1061.42 145.021C1050.81 157.45 1045.5 175.316 1045.5 198.621C1045.5 222.184 1050.81 240.31 1061.42 252.997C1072.04 265.426 1086.15 271.641 1103.76 271.641Z" fill="#1D1D1F"/>
<path d="M878.482 296.887C861.651 296.887 846.891 292.874 834.204 284.847C821.775 276.82 812.064 265.556 805.073 251.056C798.341 236.296 794.975 218.947 794.975 199.009C794.975 178.812 798.341 161.463 805.073 146.963C812.064 132.204 821.775 120.94 834.204 113.172C846.891 105.145 861.651 101.131 878.482 101.131C895.572 101.131 910.202 105.404 922.372 113.948C934.542 122.493 942.698 134.016 946.841 148.517H942.569V19.5659H974.03V293.392H943.345V248.337H947.23C943.087 263.096 934.801 274.878 922.372 283.682C910.202 292.486 895.572 296.887 878.482 296.887ZM885.085 271.641C902.951 271.641 917.063 265.427 927.421 252.998C938.037 240.31 943.345 222.314 943.345 199.009C943.345 175.446 938.037 157.45 927.421 145.021C917.063 132.592 902.951 126.377 885.085 126.377C867.477 126.377 853.365 132.592 842.749 145.021C832.132 157.45 826.824 175.446 826.824 199.009C826.824 222.314 832.132 240.31 842.749 252.998C853.365 265.427 867.477 271.641 885.085 271.641Z" fill="#1D1D1F"/>
<path d="M534.46 293.392V272.418L648.263 120.939V129.096H534.46V104.626H677.393V125.6L562.425 277.855V268.922H681.666V293.392H534.46Z" fill="#1D1D1F"/>
<path d="M456.227 57.63V22.2852H495.067V57.63H456.227ZM460.111 293.392V104.627H491.571V293.392H460.111Z" fill="#1D1D1F"/>
<path d="M328.676 293.392V104.627H359.36V149.294H355.476C359.878 134.016 367.516 122.494 378.392 114.725C389.267 106.698 403.638 102.038 421.505 100.743L432.768 99.5776L435.099 126.766L415.29 129.096C397.682 130.65 384.088 136.347 374.508 146.186C365.186 155.767 360.525 168.973 360.525 185.804V293.392H328.676Z" fill="#1D1D1F"/>
<path d="M205.548 296.887C188.458 296.887 173.699 292.486 161.27 283.682C149.099 274.878 140.943 263.096 136.8 248.337H140.684V293.392H110V19.5659H141.461V148.517H136.8C141.202 134.016 149.488 122.493 161.658 113.948C173.828 105.404 188.458 101.131 205.548 101.131C222.638 101.131 237.397 105.145 249.826 113.172C262.255 120.94 271.836 132.204 278.568 146.963C285.559 161.463 289.055 178.812 289.055 199.009C289.055 218.947 285.559 236.296 278.568 251.056C271.836 265.556 262.126 276.82 249.438 284.847C237.009 292.874 222.379 296.887 205.548 296.887ZM198.945 271.641C216.812 271.641 230.924 265.427 241.281 252.998C251.897 240.31 257.206 222.314 257.206 199.009C257.206 175.446 251.897 157.45 241.281 145.021C230.924 132.592 216.812 126.377 198.945 126.377C181.337 126.377 167.225 132.592 156.609 145.021C145.992 157.45 140.684 175.446 140.684 199.009C140.684 222.314 145.992 240.31 156.609 252.998C167.225 265.427 181.337 271.641 198.945 271.641Z" fill="#1D1D1F"/>
</svg>
