<svg width="2744" height="587" viewBox="0 0 2744 587" fill="none" xmlns="http://www.w3.org/2000/svg">
<path d="M2642.9 479.251C2629.76 479.251 2616.95 477.867 2604.5 475.099C2592.39 472.677 2580.97 469.217 2570.24 464.719C2559.86 459.875 2550.87 454.166 2543.26 447.592L2556.75 418.009C2565.05 424.583 2574.05 430.119 2583.74 434.617C2593.43 438.769 2603.29 441.883 2613.32 443.959C2623.36 446.035 2633.56 447.073 2643.94 447.073C2663.66 447.073 2678.54 443.44 2688.58 436.174C2698.61 428.908 2703.63 419.047 2703.63 406.591C2703.63 396.903 2700.34 389.291 2693.77 383.755C2687.19 377.873 2676.81 373.375 2662.63 370.261L2615.4 359.881C2593.6 355.383 2577.34 347.598 2566.61 336.526C2556.23 325.454 2551.04 311.095 2551.04 293.449C2551.04 277.879 2555.02 264.558 2562.98 253.486C2571.28 242.068 2582.87 233.245 2597.75 227.017C2612.63 220.789 2629.93 217.675 2649.65 217.675C2661.42 217.675 2672.66 218.886 2683.39 221.308C2694.11 223.73 2704.15 227.363 2713.49 232.207C2723.18 236.705 2731.48 242.414 2738.4 249.334L2724.39 278.917C2717.81 272.689 2710.37 267.499 2702.07 263.347C2693.77 258.849 2685.12 255.562 2676.12 253.486C2667.47 251.064 2658.65 249.853 2649.65 249.853C2630.28 249.853 2615.57 253.659 2605.54 261.271C2595.5 268.883 2590.49 278.917 2590.49 291.373C2590.49 301.061 2593.6 309.019 2599.83 315.247C2606.06 321.475 2615.74 325.973 2628.89 328.741L2676.12 338.602C2698.61 343.446 2715.39 351.231 2726.46 361.957C2737.88 372.337 2743.59 386.523 2743.59 404.515C2743.59 419.739 2739.44 433.06 2731.13 444.478C2722.83 455.55 2711.07 464.2 2695.84 470.428C2680.96 476.31 2663.32 479.251 2642.9 479.251Z" fill="#1D1D1F"/>
<path d="M2384.69 474.581V222.347H2425.7V282.032H2420.51C2426.39 261.618 2436.59 246.221 2451.13 235.841C2465.66 225.115 2484.86 218.887 2508.74 217.157L2523.79 215.6L2526.9 251.93L2500.43 255.044C2476.9 257.12 2458.74 264.732 2445.94 277.88C2433.48 290.682 2427.25 308.328 2427.25 330.818V474.581H2384.69Z" fill="#1D1D1F"/>
<path d="M2211.52 479.251C2186.96 479.251 2165.68 473.888 2147.69 463.162C2129.69 452.436 2115.68 437.385 2105.65 418.009C2095.96 398.287 2091.12 375.105 2091.12 348.463C2091.12 321.821 2095.96 298.812 2105.65 279.436C2115.68 259.714 2129.69 244.49 2147.69 233.764C2165.68 223.038 2186.96 217.675 2211.52 217.675C2236.09 217.675 2257.37 223.038 2275.36 233.764C2293.35 244.49 2307.19 259.714 2316.88 279.436C2326.91 298.812 2331.93 321.821 2331.93 348.463C2331.93 375.105 2326.91 398.287 2316.88 418.009C2307.19 437.385 2293.35 452.436 2275.36 463.162C2257.37 473.888 2236.09 479.251 2211.52 479.251ZM2211.52 445.516C2235.4 445.516 2254.25 437.212 2268.09 420.604C2282.28 403.65 2289.37 379.43 2289.37 347.944C2289.37 316.804 2282.28 292.93 2268.09 276.322C2254.25 259.714 2235.4 251.41 2211.52 251.41C2188 251.41 2169.14 259.714 2154.95 276.322C2140.77 292.93 2133.67 316.804 2133.67 347.944C2133.67 379.43 2140.77 403.65 2154.95 420.604C2169.14 437.212 2188 445.516 2211.52 445.516Z" fill="#1D1D1F"/>
<path d="M1933.51 479.251C1908.95 479.251 1887.67 473.888 1869.68 463.162C1851.68 452.436 1837.67 437.385 1827.64 418.009C1817.95 398.287 1813.11 375.105 1813.11 348.463C1813.11 321.821 1817.95 298.812 1827.64 279.436C1837.67 259.714 1851.68 244.49 1869.68 233.764C1887.67 223.038 1908.95 217.675 1933.51 217.675C1958.08 217.675 1979.36 223.038 1997.35 233.764C2015.34 244.49 2029.18 259.714 2038.87 279.436C2048.9 298.812 2053.92 321.821 2053.92 348.463C2053.92 375.105 2048.9 398.287 2038.87 418.009C2029.18 437.385 2015.34 452.436 1997.35 463.162C1979.36 473.888 1958.08 479.251 1933.51 479.251ZM1933.51 445.516C1957.39 445.516 1976.24 437.212 1990.08 420.604C2004.27 403.65 2011.36 379.43 2011.36 347.944C2011.36 316.804 2004.27 292.93 1990.08 276.322C1976.24 259.714 1957.39 251.41 1933.51 251.41C1909.99 251.41 1891.13 259.714 1876.94 276.322C1862.76 292.93 1855.66 316.804 1855.66 347.944C1855.66 379.43 1862.76 403.65 1876.94 420.604C1891.13 437.212 1909.99 445.516 1933.51 445.516Z" fill="#1D1D1F"/>
<path d="M1632.49 479.252C1610 479.252 1590.28 473.889 1573.32 463.163C1556.72 452.437 1543.74 437.386 1534.4 418.01C1525.4 398.288 1520.9 375.106 1520.9 348.464C1520.9 321.476 1525.4 298.294 1534.4 278.918C1543.74 259.196 1556.72 244.145 1573.32 233.765C1590.28 223.039 1610 217.676 1632.49 217.676C1655.33 217.676 1674.87 223.385 1691.14 234.803C1707.4 246.221 1718.3 261.618 1723.83 280.994H1718.12V108.686H1760.16V474.581H1719.16V414.377H1724.35C1718.82 434.099 1707.74 449.842 1691.14 461.606C1674.87 473.37 1655.33 479.252 1632.49 479.252ZM1641.31 445.517C1665.19 445.517 1684.04 437.213 1697.88 420.605C1712.07 403.651 1719.16 379.604 1719.16 348.464C1719.16 316.978 1712.07 292.931 1697.88 276.323C1684.04 259.715 1665.19 251.411 1641.31 251.411C1617.78 251.411 1598.93 259.715 1584.74 276.323C1570.56 292.931 1563.46 316.978 1563.46 348.464C1563.46 379.604 1570.56 403.651 1584.74 420.605C1598.93 437.213 1617.78 445.517 1641.31 445.517Z" fill="#1D1D1F"/>
<path d="M1172.8 474.58V446.554L1324.86 244.144V255.043H1172.8V222.346H1363.79V250.372L1210.16 453.82V441.883H1369.5V474.58H1172.8Z" fill="#1D1D1F"/>
<path d="M1068.26 159.548V112.319H1120.16V159.548H1068.26ZM1073.45 474.581V222.347H1115.49V474.581H1073.45Z" fill="#1D1D1F"/>
<path d="M897.82 474.581V222.347H938.821V282.032H933.631C939.513 261.618 949.72 246.221 964.252 235.841C978.784 225.115 997.987 218.887 1021.86 217.157L1036.91 215.6L1040.03 251.93L1013.56 255.044C990.029 257.12 971.864 264.732 959.062 277.88C946.606 290.682 940.378 308.328 940.378 330.818V474.581H897.82Z" fill="#1D1D1F"/>
<path d="M733.293 479.252C710.457 479.252 690.735 473.37 674.127 461.606C657.865 449.842 646.966 434.099 641.43 414.377H646.62V474.581H605.619V108.686H647.658V280.994H641.43C647.312 261.618 658.384 246.221 674.646 234.803C690.908 223.385 710.457 217.676 733.293 217.676C756.129 217.676 775.851 223.039 792.459 233.765C809.067 244.145 821.869 259.196 830.865 278.918C840.207 298.294 844.878 321.476 844.878 348.464C844.878 375.106 840.207 398.288 830.865 418.01C821.869 437.386 808.894 452.437 791.94 463.163C775.332 473.889 755.783 479.252 733.293 479.252ZM724.47 445.517C748.344 445.517 767.201 437.213 781.041 420.605C795.227 403.651 802.32 379.604 802.32 348.464C802.32 316.978 795.227 292.931 781.041 276.323C767.201 259.715 748.344 251.411 724.47 251.411C700.942 251.411 682.085 259.715 667.899 276.323C653.713 292.931 646.62 316.978 646.62 348.464C646.62 379.604 653.713 403.651 667.899 420.605C682.085 437.213 700.942 445.517 724.47 445.517Z" fill="#1D1D1F"/>
<path d="M207.367 1.72769C250.584 -7.45843 285.619 20.9121 285.619 65.0949V461.095C285.619 505.278 250.584 548.542 207.367 557.728L78.252 585.172C35.0347 594.358 5.19401e-05 565.988 0 521.805V125.805C0 81.6221 35.0347 38.3581 78.252 29.172L207.367 1.72769ZM215.192 120.065C215.192 93.5549 194.172 76.5324 168.241 82.0441L117.378 92.8556C91.4476 98.3673 70.4268 124.326 70.4268 150.835V466.835C70.4268 493.345 91.4476 510.367 117.378 504.856L168.241 494.044C194.171 488.533 215.192 462.574 215.192 436.065V120.065Z" fill="#1D1D1F"/>
</svg>
