<svg width="2167" height="4141" viewBox="0 0 2167 4141" fill="none" xmlns="http://www.w3.org/2000/svg">
<path d="M1523.31 82.5061C1817.85 19.8982 2056.63 213.257 2056.63 514.384V3213.32C2056.63 3514.44 1817.85 3809.31 1523.31 3871.92L643.325 4058.96C348.779 4121.57 110 3928.21 110 3627.08V928.152C110 627.025 348.778 332.16 643.325 269.553L1523.31 82.5061ZM1576.64 889.023C1576.64 708.349 1433.37 592.337 1256.65 629.901L909.988 703.587C733.26 741.152 589.993 918.069 589.993 1098.75V3252.44C589.993 3433.11 733.26 3549.13 909.988 3511.57L1256.65 3437.88C1433.37 3400.32 1576.64 3223.39 1576.64 3042.72V889.023Z" fill="#1D1D1F"/>
</svg>
