<svg width="1601" height="343" viewBox="0 0 1601 343" fill="none" xmlns="http://www.w3.org/2000/svg">
<path d="M120.932 1.00726C146.135 -4.34987 166.567 12.1952 166.567 37.9616V268.9C166.566 294.666 146.135 319.897 120.932 325.254L45.6348 341.259C20.4314 346.616 3.02903e-05 330.071 0 304.304V73.3662C0 47.5999 20.4314 22.3693 45.6348 17.0122L120.932 1.00726ZM125.495 70.0187C125.495 54.5588 113.236 44.6317 98.1145 47.846L68.4521 54.151C53.3302 57.3653 41.0713 72.5035 41.0713 87.9633V272.247C41.0713 287.707 53.3301 297.634 68.4521 294.42L98.1145 288.115C113.236 284.901 125.495 269.763 125.495 254.303V70.0187Z" fill="#1D1D1F"/>
<path d="M1541.67 279.185C1534 279.185 1526.53 278.378 1519.27 276.764C1512.21 275.352 1505.55 273.334 1499.29 270.711C1493.24 267.886 1487.99 264.556 1483.55 260.723L1491.42 243.47C1496.26 247.304 1501.51 250.533 1507.16 253.156C1512.81 255.577 1518.56 257.393 1524.41 258.604C1530.26 259.815 1536.22 260.42 1542.27 260.42C1553.77 260.42 1562.45 258.301 1568.3 254.064C1574.15 249.826 1577.08 244.076 1577.08 236.812C1577.08 231.162 1575.16 226.723 1571.33 223.494C1567.49 220.064 1561.44 217.441 1553.17 215.625L1525.62 209.571C1512.91 206.948 1503.43 202.408 1497.17 195.951C1491.12 189.494 1488.09 181.121 1488.09 170.83C1488.09 161.75 1490.41 153.981 1495.05 147.524C1499.9 140.866 1506.66 135.72 1515.33 132.088C1524.01 128.456 1534.1 126.64 1545.6 126.64C1552.46 126.64 1559.02 127.346 1565.27 128.759C1571.53 130.171 1577.38 132.29 1582.83 135.115C1588.48 137.738 1593.32 141.067 1597.36 145.103L1589.18 162.355C1585.35 158.723 1581.01 155.696 1576.17 153.275C1571.33 150.652 1566.28 148.735 1561.04 147.524C1555.99 146.112 1550.85 145.406 1545.6 145.406C1534.3 145.406 1525.72 147.625 1519.87 152.064C1514.02 156.503 1511.1 162.355 1511.1 169.619C1511.1 175.269 1512.91 179.91 1516.54 183.542C1520.18 187.174 1525.83 189.797 1533.49 191.411L1561.04 197.162C1574.15 199.987 1583.94 204.527 1590.39 210.782C1597.05 216.836 1600.38 225.108 1600.38 235.601C1600.38 244.479 1597.96 252.248 1593.12 258.907C1588.28 265.363 1581.42 270.408 1572.54 274.04C1563.86 277.47 1553.57 279.185 1541.67 279.185Z" fill="#1D1D1F"/>
<path d="M1391.08 276.462V129.364H1414.99V164.171H1411.97C1415.4 152.266 1421.35 143.287 1429.82 137.234C1438.3 130.979 1449.5 127.347 1463.42 126.338L1472.2 125.43L1474.01 146.617L1458.58 148.433C1444.86 149.643 1434.26 154.082 1426.8 161.75C1419.53 169.216 1415.9 179.507 1415.9 192.622V276.462H1391.08Z" fill="#1D1D1F"/>
<path d="M1290.09 279.185C1275.77 279.185 1263.36 276.058 1252.86 269.803C1242.37 263.547 1234.2 254.77 1228.35 243.47C1222.7 231.969 1219.87 218.45 1219.87 202.913C1219.87 187.376 1222.7 173.957 1228.35 162.658C1234.2 151.156 1242.37 142.278 1252.86 136.023C1263.36 129.768 1275.77 126.64 1290.09 126.64C1304.42 126.64 1316.83 129.768 1327.32 136.023C1337.81 142.278 1345.89 151.156 1351.54 162.658C1357.39 173.957 1360.31 187.376 1360.31 202.913C1360.31 218.45 1357.39 231.969 1351.54 243.47C1345.89 254.77 1337.81 263.547 1327.32 269.803C1316.83 276.058 1304.42 279.185 1290.09 279.185ZM1290.09 259.512C1304.02 259.512 1315.01 254.669 1323.08 244.984C1331.36 235.097 1335.49 220.972 1335.49 202.61C1335.49 184.45 1331.36 170.527 1323.08 160.842C1315.01 151.156 1304.02 146.314 1290.09 146.314C1276.37 146.314 1265.38 151.156 1257.1 160.842C1248.83 170.527 1244.69 184.45 1244.69 202.61C1244.69 220.972 1248.83 235.097 1257.1 244.984C1265.38 254.669 1276.37 259.512 1290.09 259.512Z" fill="#1D1D1F"/>
<path d="M1127.96 279.185C1113.64 279.185 1101.23 276.058 1090.74 269.803C1080.24 263.547 1072.07 254.77 1066.22 243.47C1060.57 231.969 1057.75 218.45 1057.75 202.913C1057.75 187.376 1060.57 173.957 1066.22 162.658C1072.07 151.156 1080.24 142.278 1090.74 136.023C1101.23 129.768 1113.64 126.64 1127.96 126.64C1142.29 126.64 1154.7 129.768 1165.19 136.023C1175.69 142.278 1183.76 151.156 1189.41 162.658C1195.26 173.957 1198.18 187.376 1198.18 202.913C1198.18 218.45 1195.26 231.969 1189.41 243.47C1183.76 254.77 1175.69 263.547 1165.19 269.803C1154.7 276.058 1142.29 279.185 1127.96 279.185ZM1127.96 259.512C1141.89 259.512 1152.88 254.669 1160.96 244.984C1169.23 235.097 1173.36 220.972 1173.36 202.61C1173.36 184.45 1169.23 170.527 1160.96 160.842C1152.88 151.156 1141.89 146.314 1127.96 146.314C1114.24 146.314 1103.25 151.156 1094.97 160.842C1086.7 170.527 1082.56 184.45 1082.56 202.61C1082.56 220.972 1086.7 235.097 1094.97 244.984C1103.25 254.669 1114.24 259.512 1127.96 259.512Z" fill="#1D1D1F"/>
<path d="M952.414 279.186C939.298 279.186 927.797 276.058 917.909 269.803C908.224 263.548 900.657 254.77 895.209 243.471C889.963 231.969 887.34 218.45 887.34 202.913C887.34 187.174 889.963 173.655 895.209 162.356C900.657 150.854 908.224 142.077 917.909 136.023C927.797 129.768 939.298 126.641 952.414 126.641C965.731 126.641 977.132 129.97 986.615 136.629C996.099 143.287 1002.45 152.267 1005.68 163.566H1002.35V63.0801H1026.87V276.462H1002.96V241.352H1005.99C1002.76 252.854 996.301 262.035 986.615 268.895C977.132 275.756 965.731 279.186 952.414 279.186ZM957.559 259.512C971.482 259.512 982.479 254.67 990.55 244.984C998.823 235.097 1002.96 221.073 1002.96 202.913C1002.96 184.551 998.823 170.528 990.55 160.842C982.479 151.157 971.482 146.314 957.559 146.314C943.838 146.314 932.841 151.157 924.568 160.842C916.295 170.528 912.159 184.551 912.159 202.913C912.159 221.073 916.295 235.097 924.568 244.984C932.841 254.67 943.838 259.512 957.559 259.512Z" fill="#1D1D1F"/>
<path d="M684.331 276.461V260.117L773.013 142.076V148.432H684.331V129.364H795.713V145.708L706.123 264.355V257.393H799.043V276.461H684.331Z" fill="#1D1D1F"/>
<path d="M623.367 92.7416V65.1987H653.634V92.7416H623.367ZM626.394 276.462V129.365H650.91V276.462H626.394Z" fill="#1D1D1F"/>
<path d="M523.972 276.462V129.364H547.883V164.171H544.856C548.286 152.266 554.239 143.287 562.713 137.234C571.188 130.979 582.387 127.347 596.31 126.338L605.087 125.43L606.903 146.617L591.467 148.433C577.746 149.643 567.152 154.082 559.687 161.75C552.423 169.216 548.791 179.507 548.791 192.622V276.462H523.972Z" fill="#1D1D1F"/>
<path d="M428.023 279.186C414.706 279.186 403.204 275.756 393.519 268.895C384.035 262.035 377.679 252.854 374.451 241.352H377.477V276.462H353.566V63.0801H378.083V163.566H374.451C377.881 152.267 384.338 143.287 393.821 136.629C403.305 129.97 414.706 126.641 428.023 126.641C441.34 126.641 452.842 129.768 462.527 136.023C472.213 142.077 479.679 150.854 484.925 162.356C490.373 173.655 493.097 187.174 493.097 202.913C493.097 218.45 490.373 231.969 484.925 243.471C479.679 254.77 472.112 263.548 462.225 269.803C452.539 276.058 441.139 279.186 428.023 279.186ZM422.878 259.512C436.8 259.512 447.797 254.67 455.869 244.984C464.142 235.097 468.278 221.073 468.278 202.913C468.278 184.551 464.142 170.528 455.869 160.842C447.797 151.157 436.8 146.314 422.878 146.314C409.157 146.314 398.16 151.157 389.887 160.842C381.614 170.528 377.477 184.551 377.477 202.913C377.477 221.073 381.614 235.097 389.887 244.984C398.16 254.67 409.157 259.512 422.878 259.512Z" fill="#1D1D1F"/>
</svg>
