<svg width="345" height="397" viewBox="0 0 345 397" fill="none" xmlns="http://www.w3.org/2000/svg">
<rect width="344.585" height="396" transform="translate(0 0.734375)" fill="white"/>
<path d="M200.452 71.4878C219.303 67.4809 234.585 79.8558 234.585 99.128V271.86C234.584 291.132 219.303 310.003 200.452 314.01L144.133 325.981C125.282 329.988 110 317.613 110 298.341V125.609C110 106.337 125.282 87.4656 144.133 83.4587L200.452 71.4878ZM203.865 123.105C203.865 111.542 194.696 104.117 183.385 106.521L161.199 111.237C149.889 113.641 140.72 124.964 140.72 136.527V274.363C140.72 285.927 149.889 293.352 161.199 290.948L183.385 286.232C194.696 283.828 203.865 272.505 203.865 260.941V123.105Z" fill="#1D1D1F"/>
</svg>
