<svg width="1821" height="483" viewBox="0 0 1821 483" fill="none" xmlns="http://www.w3.org/2000/svg">
<path d="M1651.67 349.185C1644 349.185 1636.53 348.378 1629.27 346.764C1622.21 345.352 1615.55 343.334 1609.29 340.711C1603.24 337.886 1597.99 334.556 1593.55 330.723L1601.42 313.47C1606.26 317.304 1611.51 320.533 1617.16 323.156C1622.81 325.577 1628.56 327.393 1634.41 328.604C1640.26 329.815 1646.22 330.42 1652.27 330.42C1663.77 330.42 1672.45 328.301 1678.3 324.064C1684.15 319.826 1687.08 314.076 1687.08 306.812C1687.08 301.162 1685.16 296.723 1681.33 293.494C1677.49 290.064 1671.44 287.441 1663.17 285.625L1635.62 279.571C1622.91 276.948 1613.43 272.408 1607.17 265.951C1601.12 259.494 1598.09 251.121 1598.09 240.83C1598.09 231.75 1600.41 223.981 1605.05 217.524C1609.9 210.866 1616.66 205.72 1625.33 202.088C1634.01 198.456 1644.1 196.64 1655.6 196.64C1662.46 196.64 1669.02 197.346 1675.27 198.759C1681.53 200.171 1687.38 202.29 1692.83 205.115C1698.48 207.738 1703.32 211.067 1707.36 215.103L1699.18 232.355C1695.35 228.723 1691.01 225.696 1686.17 223.275C1681.33 220.652 1676.28 218.735 1671.04 217.524C1665.99 216.112 1660.85 215.406 1655.6 215.406C1644.3 215.406 1635.72 217.625 1629.87 222.064C1624.02 226.503 1621.1 232.355 1621.1 239.619C1621.1 245.269 1622.91 249.91 1626.54 253.542C1630.18 257.174 1635.83 259.797 1643.49 261.411L1671.04 267.162C1684.15 269.987 1693.94 274.527 1700.39 280.782C1707.05 286.836 1710.38 295.108 1710.38 305.601C1710.38 314.479 1707.96 322.248 1703.12 328.907C1698.28 335.363 1691.42 340.408 1682.54 344.04C1673.86 347.47 1663.57 349.185 1651.67 349.185Z" fill="#1D1D1F"/>
<path d="M1501.08 346.462V199.364H1524.99V234.171H1521.97C1525.4 222.266 1531.35 213.287 1539.82 207.234C1548.3 200.979 1559.5 197.347 1573.42 196.338L1582.2 195.43L1584.01 216.617L1568.58 218.433C1554.86 219.643 1544.26 224.082 1536.8 231.75C1529.53 239.216 1525.9 249.507 1525.9 262.622V346.462H1501.08Z" fill="#1D1D1F"/>
<path d="M1400.09 349.185C1385.77 349.185 1373.36 346.058 1362.86 339.803C1352.37 333.547 1344.2 324.77 1338.35 313.47C1332.7 301.969 1329.87 288.45 1329.87 272.913C1329.87 257.376 1332.7 243.957 1338.35 232.658C1344.2 221.156 1352.37 212.278 1362.86 206.023C1373.36 199.768 1385.77 196.64 1400.09 196.64C1414.42 196.64 1426.83 199.768 1437.32 206.023C1447.81 212.278 1455.89 221.156 1461.54 232.658C1467.39 243.957 1470.31 257.376 1470.31 272.913C1470.31 288.45 1467.39 301.969 1461.54 313.47C1455.89 324.77 1447.81 333.547 1437.32 339.803C1426.83 346.058 1414.42 349.185 1400.09 349.185ZM1400.09 329.512C1414.02 329.512 1425.01 324.669 1433.08 314.984C1441.36 305.097 1445.49 290.972 1445.49 272.61C1445.49 254.45 1441.36 240.527 1433.08 230.842C1425.01 221.156 1414.02 216.314 1400.09 216.314C1386.37 216.314 1375.38 221.156 1367.1 230.842C1358.83 240.527 1354.69 254.45 1354.69 272.61C1354.69 290.972 1358.83 305.097 1367.1 314.984C1375.38 324.669 1386.37 329.512 1400.09 329.512Z" fill="#1D1D1F"/>
<path d="M1237.96 349.185C1223.64 349.185 1211.23 346.058 1200.74 339.803C1190.24 333.547 1182.07 324.77 1176.22 313.47C1170.57 301.969 1167.75 288.45 1167.75 272.913C1167.75 257.376 1170.57 243.957 1176.22 232.658C1182.07 221.156 1190.24 212.278 1200.74 206.023C1211.23 199.768 1223.64 196.64 1237.96 196.64C1252.29 196.64 1264.7 199.768 1275.19 206.023C1285.69 212.278 1293.76 221.156 1299.41 232.658C1305.26 243.957 1308.18 257.376 1308.18 272.913C1308.18 288.45 1305.26 301.969 1299.41 313.47C1293.76 324.77 1285.69 333.547 1275.19 339.803C1264.7 346.058 1252.29 349.185 1237.96 349.185ZM1237.96 329.512C1251.89 329.512 1262.88 324.669 1270.96 314.984C1279.23 305.097 1283.36 290.972 1283.36 272.61C1283.36 254.45 1279.23 240.527 1270.96 230.842C1262.88 221.156 1251.89 216.314 1237.96 216.314C1224.24 216.314 1213.25 221.156 1204.97 230.842C1196.7 240.527 1192.56 254.45 1192.56 272.61C1192.56 290.972 1196.7 305.097 1204.97 314.984C1213.25 324.669 1224.24 329.512 1237.96 329.512Z" fill="#1D1D1F"/>
<path d="M1062.41 349.186C1049.3 349.186 1037.8 346.058 1027.91 339.803C1018.22 333.548 1010.66 324.77 1005.21 313.471C999.963 301.969 997.34 288.45 997.34 272.913C997.34 257.174 999.963 243.655 1005.21 232.356C1010.66 220.854 1018.22 212.077 1027.91 206.023C1037.8 199.768 1049.3 196.641 1062.41 196.641C1075.73 196.641 1087.13 199.97 1096.62 206.629C1106.1 213.287 1112.45 222.267 1115.68 233.566H1112.35V133.08H1136.87V346.462H1112.96V311.352H1115.99C1112.76 322.854 1106.3 332.035 1096.62 338.895C1087.13 345.756 1075.73 349.186 1062.41 349.186ZM1067.56 329.512C1081.48 329.512 1092.48 324.67 1100.55 314.984C1108.82 305.097 1112.96 291.073 1112.96 272.913C1112.96 254.551 1108.82 240.528 1100.55 230.842C1092.48 221.157 1081.48 216.314 1067.56 216.314C1053.84 216.314 1042.84 221.157 1034.57 230.842C1026.3 240.528 1022.16 254.551 1022.16 272.913C1022.16 291.073 1026.3 305.097 1034.57 314.984C1042.84 324.67 1053.84 329.512 1067.56 329.512Z" fill="#1D1D1F"/>
<path d="M794.331 346.461V330.117L883.013 212.076V218.432H794.331V199.364H905.713V215.708L816.123 334.355V327.393H909.043V346.461H794.331Z" fill="#1D1D1F"/>
<path d="M733.367 162.742V135.199H763.634V162.742H733.367ZM736.394 346.462V199.365H760.91V346.462H736.394Z" fill="#1D1D1F"/>
<path d="M633.972 346.462V199.364H657.883V234.171H654.856C658.286 222.266 664.239 213.287 672.713 207.234C681.188 200.979 692.387 197.347 706.31 196.338L715.087 195.43L716.903 216.617L701.467 218.433C687.746 219.643 677.152 224.082 669.687 231.75C662.423 239.216 658.791 249.507 658.791 262.622V346.462H633.972Z" fill="#1D1D1F"/>
<path d="M538.023 349.186C524.706 349.186 513.204 345.756 503.519 338.895C494.035 332.035 487.679 322.854 484.451 311.352H487.477V346.462H463.566V133.08H488.083V233.566H484.451C487.881 222.267 494.338 213.287 503.821 206.629C513.305 199.97 524.706 196.641 538.023 196.641C551.34 196.641 562.842 199.768 572.527 206.023C582.213 212.077 589.679 220.854 594.925 232.356C600.373 243.655 603.097 257.174 603.097 272.913C603.097 288.45 600.373 301.969 594.925 313.471C589.679 324.77 582.112 333.548 572.225 339.803C562.539 346.058 551.139 349.186 538.023 349.186ZM532.878 329.512C546.8 329.512 557.797 324.67 565.869 314.984C574.142 305.097 578.278 291.073 578.278 272.913C578.278 254.551 574.142 240.528 565.869 230.842C557.797 221.157 546.8 216.314 532.878 216.314C519.157 216.314 508.16 221.157 499.887 230.842C491.614 240.528 487.477 254.551 487.477 272.913C487.477 291.073 491.614 305.097 499.887 314.984C508.16 324.67 519.157 329.512 532.878 329.512Z" fill="#1D1D1F"/>
<path d="M230.932 71.0073C256.135 65.6501 276.567 82.1952 276.567 107.962V338.9C276.566 364.666 256.135 389.897 230.932 395.254L155.635 411.259C130.431 416.616 110 400.071 110 374.304V143.366C110 117.6 130.431 92.3693 155.635 87.0122L230.932 71.0073ZM235.495 140.019C235.495 124.559 223.236 114.632 208.114 117.846L178.452 124.151C163.33 127.365 151.071 142.504 151.071 157.963V342.247C151.071 357.707 163.33 367.634 178.452 364.42L208.114 358.115C223.236 354.901 235.495 339.763 235.495 324.303V140.019Z" fill="#1D1D1F"/>
</svg>
